<svg id="eAQOHGRacn21" xmlns="http://www.w3.org/2000/svg" xmlns:xlink="http://www.w3.org/1999/xlink" viewBox="0 0 100 30" shape-rendering="geometricPrecision" text-rendering="geometricPrecision"><path d="M4.055748,27.017634v-24.014318h92.984348v.967402l-.000004,1.157599v1.375v1.375v1.1875v1.3125v1.5625.875v1.125.875v1.5625v1.1875v1.0625v1.1875v1.3125.625v1.125.75v1.0625v1l.000004,1.326817h-92.984348Z" transform="matrix(1.00061 0 0 0.980396-.059389 0.294265)" fill="#fff5e6" stroke="rgba(99,88,56,0.64)" stroke-width="0"/><path d="M100,3.003316h-95.944252q-.227624,24.014318,0,24.014318t95.944252,0L100,30h-96.001158Q0,29.976744,0,27.017634t0-24.014318Q0.015424,0,3.998842,0t96.001158,0v3.003316Z" stroke="#000" stroke-width="0.5"/><path d="M4.055748,3.970718h92.984348v1.157599h-92.984348v1.374998h92.984348v1.374998h-92.984348v1.187498q92.984348.000001,92.984348,0t0,1.312498h-92.984348v1.5625h92.984344v.875q-92.984344.000001-92.984344,0t0,1.124998h92.984344v.874998h-92.984344v1.562499h92.984344v1.1875h-93.04125v1.0625h93.041254v1.1875h-92.984348v1.3125h92.984344q-.000004.625,0,.625t-93.04125,0v1.124999h93.04125v.749998q-92.984344.000001-92.984344,0t0,1.062499h92.984348v1h-92.984348" transform="translate(0 0.000017)" fill="none" stroke="rgba(0,0,0,0.42)" stroke-width="0.05"/><path d="M97.040096,3.238812v23.543326" fill="none" stroke="rgba(0,0,0,0.35)" stroke-width="0.05"/><path d="M97.039901,25.690817l.000195,1.091428" transform="translate(.000001 0)" fill="none" stroke="rgba(0,0,0,0.5)" stroke-width="0.05"/><path d="M97.040097,24.690817v-1.062499" transform="translate(0 0.000001)" fill="none" stroke="rgba(0,0,0,0.5)" stroke-width="0.05"/><path d="M97.040097,22.87832v-1.124999" transform="translate(0 0.000001)" fill="none" stroke="rgba(0,0,0,0.51)" stroke-width="0.05"/><path d="M97.040097,21.128321v-1.3125" fill="none" stroke="rgba(0,0,0,0.5)" stroke-width="0.05"/><path d="M97.039897,18.628321l.0002-1.0625" fill="none" stroke="rgba(0,0,0,0.5)" stroke-width="0.05"/><path d="M97.040097,16.351501v-1.535679" transform="translate(0 0.000001)" fill="none" stroke="rgba(0,0,0,0.5)" stroke-width="0.05"/><path d="M97.040097,13.940824l-.000196-1.124998" fill="none" stroke="rgba(0,0,0,0.5)" stroke-width="0.05"/><path d="M97.040097,11.940826v-1.5625" fill="none" stroke="rgba(0,0,0,0.48)" stroke-width="0.05"/><path d="M97.040097,9.065828v-1.187498" fill="none" stroke="rgba(0,0,0,0.5)" stroke-width="0.05"/><path d="M97.040097,6.503332v-1.374998" fill="none" stroke="rgba(0,0,0,0.5)" stroke-width="0.05"/><path d="" fill="none" stroke="#3f5787" stroke-width="0.5"/><path d="M97.040097,3.970735v-.732031" transform="translate(0 0.000001)" fill="none" stroke="rgba(0,0,0,0.5)" stroke-width="0.05"/></svg>
